<svg xmlns="http://www.w3.org/2000/svg" viewBox="0 0 48 48" fill="none">
  <path d="M24 42 Q10 36 8 24 Q6 14 14 9" stroke="#D4AF37" stroke-width="1.3" fill="none" stroke-linecap="round"/>
  <path d="M24 42 Q38 36 40 24 Q42 14 34 9" stroke="#D4AF37" stroke-width="1.3" fill="none" stroke-linecap="round"/>
  <ellipse cx="11" cy="12" rx="4.5" ry="2.5" transform="rotate(-45 11 12)" stroke="#D4AF37" stroke-width="1.2" fill="none"/>
  <ellipse cx="9" cy="19" rx="4.5" ry="2.5" transform="rotate(-25 9 19)" stroke="#D4AF37" stroke-width="1.2" fill="none"/>
  <ellipse cx="10" cy="27" rx="4.5" ry="2.5" transform="rotate(-10 10 27)" stroke="#D4AF37" stroke-width="1.2" fill="none"/>
  <ellipse cx="14" cy="34" rx="4.5" ry="2.5" transform="rotate(10 14 34)" stroke="#D4AF37" stroke-width="1.2" fill="none"/>
  <ellipse cx="37" cy="12" rx="4.5" ry="2.5" transform="rotate(45 37 12)" stroke="#D4AF37" stroke-width="1.2" fill="none"/>
  <ellipse cx="39" cy="19" rx="4.5" ry="2.5" transform="rotate(25 39 19)" stroke="#D4AF37" stroke-width="1.2" fill="none"/>
  <ellipse cx="38" cy="27" rx="4.5" ry="2.5" transform="rotate(10 38 27)" stroke="#D4AF37" stroke-width="1.2" fill="none"/>
  <ellipse cx="34" cy="34" rx="4.5" ry="2.5" transform="rotate(-10 34 34)" stroke="#D4AF37" stroke-width="1.2" fill="none"/>
  <path d="M20 43 Q24 45 28 43" stroke="#D4AF37" stroke-width="1.3" fill="none" stroke-linecap="round"/>
</svg>