<svg xmlns="http://www.w3.org/2000/svg" viewBox="0 0 48 48" fill="none">
  <path d="M24 10 C24 10 32 8 36 14 C40 20 38 28 34 32 C32 34 30 36 28 37 L28 42 L20 42 L20 37 C18 36 16 34 14 32 C10 28 8 20 12 14 C16 8 24 10 24 10Z" stroke="#D4AF37" stroke-width="1.5" stroke-linejoin="round"/>
  <line x1="24" y1="10" x2="24" y2="37" stroke="#D4AF37" stroke-width="1" opacity="0.35"/>
  <path d="M24 16 C21 14 17 16 17 20" stroke="#D4AF37" stroke-width="1.2" stroke-linecap="round" fill="none" opacity="0.7"/>
  <path d="M24 16 C27 14 31 16 31 20" stroke="#D4AF37" stroke-width="1.2" stroke-linecap="round" fill="none" opacity="0.7"/>
  <path d="M15 24 C16 27 20 28 24 27" stroke="#D4AF37" stroke-width="1.2" stroke-linecap="round" fill="none" opacity="0.7"/>
  <path d="M33 24 C32 27 28 28 24 27" stroke="#D4AF37" stroke-width="1.2" stroke-linecap="round" fill="none" opacity="0.7"/>
  <circle cx="19" cy="22" r="1.5" fill="#D4AF37" opacity="0.8"/>
  <circle cx="29" cy="22" r="1.5" fill="#D4AF37" opacity="0.8"/>
  <circle cx="24" cy="30" r="1.2" fill="#D4AF37" opacity="0.6"/>
</svg>